<svg viewBox="0 0 100 100" xmlns="http://www.w3.org/2000/svg">
  <defs>
    <radialGradient id="c" cx="28%" cy="16%" r="120%">
      <stop offset="0%" stop-color="#FF8A6B"/>
      <stop offset="55%" stop-color="#FF6B4A"/>
      <stop offset="100%" stop-color="#EF5530"/>
    </radialGradient>
  </defs>
  <rect width="100" height="100" rx="24" fill="url(#c)"/>
  <path fill-rule="evenodd" fill="#FFF4E8" d="M50 37 C58 33 66 32 74 33 C84 34 90 39 89 46 C88 55 80 61 70 61 C61 61 55 57 50 51 C45 57 39 61 30 61 C20 61 12 55 11 46 C10 39 16 34 26 33 C34 32 42 33 50 37 Z M28 46 a5 6.4 0 1 0 10 0 a5 6.4 0 1 0 -10 0 Z M62 46 a5 6.4 0 1 0 10 0 a5 6.4 0 1 0 -10 0 Z"/>
</svg>
