<svg xmlns="http://www.w3.org/2000/svg" width="1200" height="630" viewBox="0 0 1200 630">
  <defs>
    <linearGradient id="aqua" x1="0" y1="0" x2="1200" y2="630" gradientUnits="userSpaceOnUse">
      <stop offset="0" stop-color="#18B4D2"/><stop offset="1" stop-color="#0B7C97"/>
    </linearGradient>
  </defs>
  <rect width="1200" height="630" fill="url(#aqua)"/>
  <circle cx="300" cy="315" r="360" fill="#F4FAFC" opacity="0.05"/>
  <circle cx="300" cy="315" r="250" fill="#F4FAFC" opacity="0.05"/>
  <!-- cap glyph -->
  <g transform="translate(300,300) scale(3.9) translate(-63,-63)">
    <path d="M54 84 C52 91 50 97 47 103" fill="none" stroke="#F4FAFC" stroke-width="6" stroke-linecap="round"/>
    <path d="M38 36 C47 24 74 22 88 37 C98 48 98 67 90 81 C84 90 71 93 62 88 C57 85 54 81 51 77 C48 72 44 70 39 71 C32 63 31 47 38 36 Z" fill="#16305C" stroke="#F4FAFC" stroke-width="3" stroke-linejoin="round"/>
    <text x="63" y="51" text-anchor="middle" font-family="Saira Condensed" font-weight="800" font-size="32" letter-spacing="-2" fill="#F4FAFC">11</text>
    <ellipse cx="57" cy="72" rx="11" ry="14" fill="#DDE7EB" stroke="#F4FAFC" stroke-width="2.5"/>
    <circle cx="57" cy="72" r="2.1" fill="#16305C"/><circle cx="57" cy="65" r="2.1" fill="#16305C"/><circle cx="57" cy="79" r="2.1" fill="#16305C"/><circle cx="52" cy="68.5" r="2.1" fill="#16305C"/><circle cx="62" cy="68.5" r="2.1" fill="#16305C"/><circle cx="52" cy="75.5" r="2.1" fill="#16305C"/><circle cx="62" cy="75.5" r="2.1" fill="#16305C"/>
  </g>
  <!-- wordmark -->
  <text x="560" y="300" font-family="Saira Condensed" font-weight="800" font-size="150" letter-spacing="-4" fill="#F4FAFC">CALOTTINA</text>
  <rect x="562" y="330" width="120" height="12" rx="6" fill="#FFC220"/>
  <text x="560" y="392" font-family="Saira Condensed, sans-serif" font-weight="600" font-size="46" fill="#E6F7FB">La pallanuoto italiana in tasca</text>
  <text x="560" y="452" font-family="Saira Condensed, sans-serif" font-weight="600" font-size="30" fill="#F4FAFC" opacity="0.82">Serie A1 · A2 · B · giovanili · regionali</text>
</svg>
